<svg width="80" height="32" viewBox="0 0 80 32" fill="none" xmlns="http://www.w3.org/2000/svg">
  <rect width="80" height="32" rx="4" fill="#00B67A"/>
  <text x="40" y="12" text-anchor="middle" fill="white" font-size="8" font-family="Arial, sans-serif" font-weight="bold">Trustpilot</text>
  <g transform="translate(10, 16)">
    <polygon points="6,0 7.5,4 12,4 8.5,7 10,11 6,8.5 2,11 3.5,7 0,4 4.5,4" fill="white"/>
    <polygon points="18,0 19.5,4 24,4 20.5,7 22,11 18,8.5 14,11 15.5,7 12,4 16.5,4" fill="white"/>
    <polygon points="30,0 31.5,4 36,4 32.5,7 34,11 30,8.5 26,11 27.5,7 24,4 28.5,4" fill="white"/>
    <polygon points="42,0 43.5,4 48,4 44.5,7 46,11 42,8.5 38,11 39.5,7 36,4 40.5,4" fill="white"/>
    <polygon points="54,0 55.5,4 60,4 56.5,7 58,11 54,8.5 50,11 51.5,7 48,4 52.5,4" fill="white"/>
  </g>
</svg>